<svg width="640" height="420" viewBox="0 0 640 420" fill="none" xmlns="http://www.w3.org/2000/svg" role="img" aria-label="BPS statistics command dashboard illustration">
  <rect width="640" height="420" rx="28" fill="#F6F8FC"/>
  <path d="M86 88h468v260H86z" fill="#fff" stroke="#D5DFEC" stroke-width="3"/>
  <path d="M126 130h122v178H126z" fill="#EEF5FF" stroke="#1F66A9" stroke-width="3"/>
  <path d="M290 130h224v72H290z" fill="#F1FBF7" stroke="#178E68" stroke-width="3"/>
  <path d="M290 236h224v72H290z" fill="#FFF1E3" stroke="#F58220" stroke-width="3"/>
  <path d="M154 276V162M188 276v-78M222 276v-116" stroke="#1F66A9" stroke-width="18" stroke-linecap="round"/>
  <path d="M320 166h154" stroke="#178E68" stroke-width="10" stroke-linecap="round"/>
  <path d="M320 272h126" stroke="#F58220" stroke-width="10" stroke-linecap="round"/>
  <circle cx="498" cy="166" r="16" fill="#178E68"/>
  <circle cx="470" cy="272" r="16" fill="#F58220"/>
  <path d="M126 340h388" stroke="#D5DFEC" stroke-width="8" stroke-linecap="round"/>
  <path d="M396 84c22 17 50 49 54 104 4 58-20 106-44 132" stroke="#1F66A9" stroke-width="10" stroke-linecap="round" opacity=".18"/>
  <path d="M430 84c22 22 50 62 50 120 0 54-24 94-45 116" stroke="#178E68" stroke-width="10" stroke-linecap="round" opacity=".18"/>
  <path d="M464 90c18 22 38 58 38 108 0 44-16 82-36 110" stroke="#F58220" stroke-width="10" stroke-linecap="round" opacity=".22"/>
  <circle cx="126" cy="88" r="22" fill="#1F66A9"/>
  <circle cx="166" cy="88" r="22" fill="#178E68"/>
  <circle cx="206" cy="88" r="22" fill="#F58220"/>
</svg>
